<svg width="1424" height="9176" viewBox="0 0 1424 9176" fill="none" xmlns="http://www.w3.org/2000/svg">
<g opacity="0.69" filter="url(#filter0_f_1126_22124)">
<ellipse cx="421.673" cy="90.4767" rx="421.673" ry="90.4767" transform="matrix(-0.964711 -0.26331 -0.26331 0.964711 306.809 616.457)" fill="#24B8EC"/>
</g>
<g opacity="0.69" filter="url(#filter1_f_1126_22124)">
<ellipse cx="421.673" cy="90.4767" rx="421.673" ry="90.4767" transform="matrix(-0.964711 -0.26331 -0.26331 0.964711 306.809 2030.32)" fill="#24B8EC"/>
</g>
<g opacity="0.69" filter="url(#filter2_f_1126_22124)">
<ellipse cx="421.673" cy="90.4767" rx="421.673" ry="90.4767" transform="matrix(-0.964711 -0.26331 -0.26331 0.964711 306.809 7864.31)" fill="#24B8EC"/>
</g>
<g opacity="0.69" filter="url(#filter3_f_1126_22124)">
<ellipse cx="421.673" cy="90.4767" rx="421.673" ry="90.4767" transform="matrix(-0.964711 -0.26331 -0.26331 0.964711 306.809 2912.08)" fill="#24B8EC"/>
</g>
<g opacity="0.69" filter="url(#filter4_f_1126_22124)">
<ellipse cx="421.673" cy="90.4767" rx="421.673" ry="90.4767" transform="matrix(-0.964711 -0.26331 -0.26331 0.964711 306.809 8746.07)" fill="#24B8EC"/>
</g>
<g opacity="0.69" filter="url(#filter5_f_1126_22124)">
<ellipse cx="421.673" cy="90.4767" rx="421.673" ry="90.4767" transform="matrix(-0.964711 -0.26331 -0.26331 0.964711 290.921 3905.28)" fill="#24B8EC"/>
</g>
<g opacity="0.69" filter="url(#filter6_f_1126_22124)">
<ellipse cx="439.042" cy="132.003" rx="439.042" ry="132.003" transform="matrix(-0.926546 -0.376181 -0.180476 0.983579 191.871 4696.42)" fill="#24B8EC"/>
</g>
<g opacity="0.69" filter="url(#filter7_f_1126_22124)">
<path d="M1557.91 692.56C1502.61 692.56 1447.86 687.635 1396.77 678.067C1345.68 668.5 1299.27 654.476 1260.17 636.796C1221.07 619.117 1190.05 598.129 1168.89 575.03C1147.73 551.931 1136.84 527.174 1136.84 502.172C1136.84 477.169 1147.73 452.412 1168.89 429.313C1190.05 406.214 1221.07 385.226 1260.17 367.547C1299.27 349.867 1345.68 335.844 1396.77 326.276C1447.86 316.708 1502.61 311.783 1557.91 311.783L1557.91 502.172L1557.91 692.56Z" fill="#24B8EC"/>
</g>
<g opacity="0.69" filter="url(#filter8_f_1126_22124)">
<path d="M1557.91 2106.43C1502.61 2106.43 1447.86 2101.5 1396.77 2091.93C1345.68 2082.36 1299.27 2068.34 1260.17 2050.66C1221.07 2032.98 1190.05 2011.99 1168.89 1988.9C1147.73 1965.8 1136.84 1941.04 1136.84 1916.04C1136.84 1891.03 1147.73 1866.28 1168.89 1843.18C1190.05 1820.08 1221.07 1799.09 1260.17 1781.41C1299.27 1763.73 1345.68 1749.71 1396.77 1740.14C1447.86 1730.57 1502.61 1725.65 1557.91 1725.65L1557.91 1916.04L1557.91 2106.43Z" fill="#24B8EC"/>
</g>
<g opacity="0.69" filter="url(#filter9_f_1126_22124)">
<path d="M1557.91 7940.41C1502.61 7940.41 1447.86 7935.49 1396.77 7925.92C1345.68 7916.35 1299.27 7902.33 1260.17 7884.65C1221.07 7866.97 1190.05 7845.98 1168.89 7822.88C1147.73 7799.78 1136.84 7775.03 1136.84 7750.02C1136.84 7725.02 1147.73 7700.27 1168.89 7677.17C1190.05 7654.07 1221.07 7633.08 1260.17 7615.4C1299.27 7597.72 1345.68 7583.7 1396.77 7574.13C1447.86 7564.56 1502.61 7559.64 1557.91 7559.64L1557.91 7750.02L1557.91 7940.41Z" fill="#24B8EC"/>
</g>
<g opacity="0.69" filter="url(#filter10_f_1126_22124)">
<path d="M1557.91 2988.18C1502.61 2988.18 1447.86 2983.26 1396.77 2973.69C1345.68 2964.12 1299.27 2950.1 1260.17 2932.42C1221.07 2914.74 1190.05 2893.75 1168.89 2870.65C1147.73 2847.55 1136.84 2822.8 1136.84 2797.79C1136.84 2772.79 1147.73 2748.04 1168.89 2724.94C1190.05 2701.84 1221.07 2680.85 1260.17 2663.17C1299.27 2645.49 1345.68 2631.47 1396.77 2621.9C1447.86 2612.33 1502.61 2607.41 1557.91 2607.41L1557.91 2797.79L1557.91 2988.18Z" fill="#24B8EC"/>
</g>
<g opacity="0.69" filter="url(#filter11_f_1126_22124)">
<path d="M1557.91 8822.17C1502.61 8822.17 1447.86 8817.25 1396.77 8807.68C1345.68 8798.11 1299.27 8784.09 1260.17 8766.41C1221.07 8748.73 1190.05 8727.74 1168.89 8704.64C1147.73 8681.54 1136.84 8656.78 1136.84 8631.78C1136.84 8606.78 1147.73 8582.02 1168.89 8558.92C1190.05 8535.82 1221.07 8514.84 1260.17 8497.16C1299.27 8479.48 1345.68 8465.45 1396.77 8455.89C1447.86 8446.32 1502.61 8441.39 1557.91 8441.39L1557.91 8631.78L1557.91 8822.17Z" fill="#24B8EC"/>
</g>
<g opacity="0.69" filter="url(#filter12_f_1126_22124)">
<path d="M1604.9 3945.71C1549.6 3945.71 1494.85 3940.79 1443.76 3931.22C1392.68 3921.65 1346.26 3907.63 1307.16 3889.95C1268.06 3872.27 1237.05 3851.28 1215.89 3828.18C1194.73 3805.08 1183.83 3780.33 1183.83 3755.32C1183.83 3730.32 1194.73 3705.57 1215.89 3682.47C1237.05 3659.37 1268.06 3638.38 1307.16 3620.7C1346.26 3603.02 1392.68 3589 1443.76 3579.43C1494.85 3569.86 1549.6 3564.94 1604.9 3564.94L1604.9 3755.32L1604.9 3945.71Z" fill="#24B8EC"/>
</g>
<g opacity="0.69" filter="url(#filter13_f_1126_22124)">
<path d="M1691.01 4809.62C1635.72 4809.62 1580.96 4802.29 1529.88 4788.06C1478.79 4773.83 1432.37 4752.97 1393.27 4726.67C1354.17 4700.37 1323.16 4669.15 1302 4634.79C1280.84 4600.43 1269.95 4563.6 1269.95 4526.41C1269.95 4489.22 1280.84 4452.4 1302 4418.04C1323.16 4383.68 1354.17 4352.46 1393.27 4326.16C1432.37 4299.86 1478.79 4279 1529.88 4264.77C1580.96 4250.53 1635.72 4243.21 1691.01 4243.21L1691.01 4526.41L1691.01 4809.62Z" fill="#24B8EC"/>
</g>
<defs>
<filter id="filter0_f_1126_22124" x="-843.093" y="139.69" width="1438.57" height="906.041" filterUnits="userSpaceOnUse" color-interpolation-filters="sRGB">
<feFlood flood-opacity="0" result="BackgroundImageFix"/>
<feBlend mode="normal" in="SourceGraphic" in2="BackgroundImageFix" result="shape"/>
<feGaussianBlur stdDeviation="155.892" result="effect1_foregroundBlur_1126_22124"/>
</filter>
<filter id="filter1_f_1126_22124" x="-843.093" y="1553.55" width="1438.57" height="906.041" filterUnits="userSpaceOnUse" color-interpolation-filters="sRGB">
<feFlood flood-opacity="0" result="BackgroundImageFix"/>
<feBlend mode="normal" in="SourceGraphic" in2="BackgroundImageFix" result="shape"/>
<feGaussianBlur stdDeviation="155.892" result="effect1_foregroundBlur_1126_22124"/>
</filter>
<filter id="filter2_f_1126_22124" x="-843.093" y="7387.54" width="1438.57" height="906.041" filterUnits="userSpaceOnUse" color-interpolation-filters="sRGB">
<feFlood flood-opacity="0" result="BackgroundImageFix"/>
<feBlend mode="normal" in="SourceGraphic" in2="BackgroundImageFix" result="shape"/>
<feGaussianBlur stdDeviation="155.892" result="effect1_foregroundBlur_1126_22124"/>
</filter>
<filter id="filter3_f_1126_22124" x="-843.093" y="2435.31" width="1438.57" height="906.041" filterUnits="userSpaceOnUse" color-interpolation-filters="sRGB">
<feFlood flood-opacity="0" result="BackgroundImageFix"/>
<feBlend mode="normal" in="SourceGraphic" in2="BackgroundImageFix" result="shape"/>
<feGaussianBlur stdDeviation="155.892" result="effect1_foregroundBlur_1126_22124"/>
</filter>
<filter id="filter4_f_1126_22124" x="-843.093" y="8269.3" width="1438.57" height="906.041" filterUnits="userSpaceOnUse" color-interpolation-filters="sRGB">
<feFlood flood-opacity="0" result="BackgroundImageFix"/>
<feBlend mode="normal" in="SourceGraphic" in2="BackgroundImageFix" result="shape"/>
<feGaussianBlur stdDeviation="155.892" result="effect1_foregroundBlur_1126_22124"/>
</filter>
<filter id="filter5_f_1126_22124" x="-858.981" y="3428.52" width="1438.57" height="906.041" filterUnits="userSpaceOnUse" color-interpolation-filters="sRGB">
<feFlood flood-opacity="0" result="BackgroundImageFix"/>
<feBlend mode="normal" in="SourceGraphic" in2="BackgroundImageFix" result="shape"/>
<feGaussianBlur stdDeviation="155.892" result="effect1_foregroundBlur_1126_22124"/>
</filter>
<filter id="filter6_f_1126_22124" x="-958.031" y="4139.22" width="1438.57" height="1043.75" filterUnits="userSpaceOnUse" color-interpolation-filters="sRGB">
<feFlood flood-opacity="0" result="BackgroundImageFix"/>
<feBlend mode="normal" in="SourceGraphic" in2="BackgroundImageFix" result="shape"/>
<feGaussianBlur stdDeviation="155.892" result="effect1_foregroundBlur_1126_22124"/>
</filter>
<filter id="filter7_f_1126_22124" x="825.057" y="6.10352e-05" width="1044.63" height="1004.34" filterUnits="userSpaceOnUse" color-interpolation-filters="sRGB">
<feFlood flood-opacity="0" result="BackgroundImageFix"/>
<feBlend mode="normal" in="SourceGraphic" in2="BackgroundImageFix" result="shape"/>
<feGaussianBlur stdDeviation="155.892" result="effect1_foregroundBlur_1126_22124"/>
</filter>
<filter id="filter8_f_1126_22124" x="825.057" y="1413.87" width="1044.63" height="1004.34" filterUnits="userSpaceOnUse" color-interpolation-filters="sRGB">
<feFlood flood-opacity="0" result="BackgroundImageFix"/>
<feBlend mode="normal" in="SourceGraphic" in2="BackgroundImageFix" result="shape"/>
<feGaussianBlur stdDeviation="155.892" result="effect1_foregroundBlur_1126_22124"/>
</filter>
<filter id="filter9_f_1126_22124" x="825.057" y="7247.85" width="1044.63" height="1004.34" filterUnits="userSpaceOnUse" color-interpolation-filters="sRGB">
<feFlood flood-opacity="0" result="BackgroundImageFix"/>
<feBlend mode="normal" in="SourceGraphic" in2="BackgroundImageFix" result="shape"/>
<feGaussianBlur stdDeviation="155.892" result="effect1_foregroundBlur_1126_22124"/>
</filter>
<filter id="filter10_f_1126_22124" x="825.057" y="2295.62" width="1044.63" height="1004.34" filterUnits="userSpaceOnUse" color-interpolation-filters="sRGB">
<feFlood flood-opacity="0" result="BackgroundImageFix"/>
<feBlend mode="normal" in="SourceGraphic" in2="BackgroundImageFix" result="shape"/>
<feGaussianBlur stdDeviation="155.892" result="effect1_foregroundBlur_1126_22124"/>
</filter>
<filter id="filter11_f_1126_22124" x="825.057" y="8129.61" width="1044.63" height="1004.34" filterUnits="userSpaceOnUse" color-interpolation-filters="sRGB">
<feFlood flood-opacity="0" result="BackgroundImageFix"/>
<feBlend mode="normal" in="SourceGraphic" in2="BackgroundImageFix" result="shape"/>
<feGaussianBlur stdDeviation="155.892" result="effect1_foregroundBlur_1126_22124"/>
</filter>
<filter id="filter12_f_1126_22124" x="872.051" y="3253.15" width="1044.63" height="1004.34" filterUnits="userSpaceOnUse" color-interpolation-filters="sRGB">
<feFlood flood-opacity="0" result="BackgroundImageFix"/>
<feBlend mode="normal" in="SourceGraphic" in2="BackgroundImageFix" result="shape"/>
<feGaussianBlur stdDeviation="155.892" result="effect1_foregroundBlur_1126_22124"/>
</filter>
<filter id="filter13_f_1126_22124" x="958.163" y="3931.43" width="1044.63" height="1189.98" filterUnits="userSpaceOnUse" color-interpolation-filters="sRGB">
<feFlood flood-opacity="0" result="BackgroundImageFix"/>
<feBlend mode="normal" in="SourceGraphic" in2="BackgroundImageFix" result="shape"/>
<feGaussianBlur stdDeviation="155.892" result="effect1_foregroundBlur_1126_22124"/>
</filter>
</defs>
</svg>
